<?xml version="1.0" encoding="UTF-8"?>
<svg width="267px" height="100px" viewBox="0 0 267 100" version="1.1" xmlns="http://www.w3.org/2000/svg" xmlns:xlink="http://www.w3.org/1999/xlink">
    <!-- Generator: Sketch 45.2 (43514) - http://www.bohemiancoding.com/sketch -->
    <title>thunpisit-git-logo</title>
    <desc>Created with Sketch.</desc>
    <defs></defs>
    <g id="Page-1" stroke="none" stroke-width="1" fill="none" fill-rule="evenodd">
        <g id="thunpisit-git-logo">
            <g id="Group-29" fill="#000000">
                <path d="M50,100 C22.3857625,100 0,77.6142375 0,50 C0,22.3857625 22.3857625,0 50,0 C77.6142375,0 100,22.3857625 100,50 C100,77.6142375 77.6142375,100 50,100 Z M69.6882852,59.939759 L69.6882852,56.3253012 C69.6882852,52.4239621 68.6126416,49.5410306 66.4613221,47.67642 C64.3100026,45.8118094 61.3125424,44.5926592 57.4688515,44.0189329 L43.098109,41.9535284 C40.2296829,41.4945473 38.7954914,40.2036824 38.7954914,38.080895 C38.7954914,36.7613244 39.6560063,35.6425749 41.377062,34.7246127 C43.0981176,33.8066506 45.6222946,33.3476764 48.9496688,33.3476764 C51.7033578,33.3476764 54.5000312,33.6345353 57.339773,34.2082616 C60.1795147,34.781988 62.9761881,35.8146799 65.7298771,37.3063683 L67.7090812,29.0447504 C64.9553922,27.6104346 62.0152996,26.5777427 58.8887153,25.9466437 C55.7621309,25.3155448 52.3917809,25 48.7775641,25 C42.1801842,25 37.0888044,26.2048072 33.5032719,28.6144578 C29.9177394,31.0241084 28.125,34.2656136 28.125,38.3390706 C28.125,42.1256644 29.2723532,44.9512242 31.567094,46.8158348 C33.8618348,48.6804454 36.9883723,49.8995955 40.9468002,50.4733219 L55.5756998,52.5387263 C56.6657017,52.7108442 57.5118746,53.0550749 58.1142441,53.5714286 C58.7166136,54.0877823 59.0177938,54.919673 59.0177938,56.0671256 L59.0177938,59.939759 C59.0177938,62.4641549 58.2576723,64.213994 56.7374065,65.1893287 C55.2171407,66.1646635 52.6499379,66.6523236 49.0357211,66.6523236 C45.5362414,66.6523236 42.9977224,66.0929488 41.4200881,64.9741824 C39.8424538,63.8554161 39.0536485,61.9191188 39.0536485,59.1652324 L39.0536485,54.6041308 L28.3831571,54.6041308 L28.3831571,59.1652324 C28.3831571,61.9764914 28.7703888,64.3861059 29.5448638,66.394148 C30.3193388,68.4021902 31.5384016,70.0372857 33.2020887,71.2994836 C34.8657758,72.5616816 37.0027211,73.4939729 39.6129888,74.0963855 C42.2232565,74.6987982 45.3641358,75 49.0357211,75 C52.6499379,75 55.7621335,74.7274841 58.3724012,74.1824441 C60.9826688,73.637404 63.1339561,72.7624845 64.8263274,71.5576592 C66.5186988,70.3528339 67.7521035,68.803796 68.5265785,66.9104991 C69.3010535,65.0172022 69.6882852,62.6936454 69.6882852,59.939759 Z" id="Combined-Shape"></path>
            </g>
            <polygon id="+" fill="#000000" points="144.064 46.512 135.424 46.512 135.424 38 128.576 38 128.576 46.512 120 46.512 120 53.424 128.576 53.424 128.576 61.936 135.424 61.936 135.424 53.424 144.064 53.424"></polygon>
            <path d="M215.265861,0 C186.956219,0 164,22.9519741 164,51.2658607 C164,73.9164607 178.689229,93.1330935 199.058724,99.911889 C201.620829,100.386447 202.561456,98.799776 202.561456,97.4457148 C202.561456,96.2232395 202.513915,92.1848262 202.491843,87.901069 C188.229631,91.0022511 185.220134,81.852363 185.220134,81.852363 C182.888093,75.9267534 179.527983,74.3511186 179.527983,74.3511186 C174.876635,71.169287 179.878596,71.2346555 179.878596,71.2346555 C185.026575,71.5963044 187.737245,76.5176165 187.737245,76.5176165 C192.309642,84.3550416 199.730237,82.0892176 202.655688,80.7793013 C203.115814,77.4658838 204.444407,75.2043045 205.910529,73.9241012 C194.523681,72.627768 182.55361,68.2319505 182.55361,48.5883002 C182.55361,42.9912309 184.556262,38.4179847 187.835722,34.8278124 C187.303436,33.5365729 185.548674,28.3223761 188.332352,21.2608832 C188.332352,21.2608832 192.637333,19.8830517 202.434115,26.5158292 C206.523464,25.3799459 210.909095,24.8103064 215.265861,24.7907807 C219.622627,24.8103064 224.011653,25.3799459 228.108643,26.5158292 C237.893539,19.8830517 242.192577,21.2608832 242.192577,21.2608832 C244.983047,28.3223761 243.227437,33.5365729 242.695151,34.8278124 C245.982251,38.4179847 247.97132,42.9912309 247.97132,48.5883002 C247.97132,68.2786422 235.978328,72.6141849 224.562616,73.883352 C226.401422,75.4742678 228.039879,78.5941267 228.039879,83.3770613 C228.039879,90.2365062 227.980453,95.7571708 227.980453,97.4457148 C227.980453,98.8099633 228.903252,100.40852 231.501861,99.9050974 C251.86032,93.1186615 266.530873,73.9088202 266.530873,51.2658607 C266.530873,22.9519741 243.57805,0 215.265861,0" id="Fill-4" fill="#161514"></path>
        </g>
    </g>
</svg>